<!DOCTYPE svg PUBLIC "-//W3C//DTD SVG 20010904//EN" "http://www.w3.org/TR/2001/REC-SVG-20010904/DTD/svg10.dtd">
<svg version="1.0" xmlns="http://www.w3.org/2000/svg" width="777px" height="777px" viewBox="0 0 7770 7770" preserveAspectRatio="xMidYMid meet">
<g id="layer101" fill="#000000" stroke="none">
</g>
<g id="layer102" fill="#fd7900" stroke="none">
<path d="M1155 7750 c-4 -12 -22 -24 -48 -32 -48 -14 -97 -61 -97 -94 0 -12 -7 -27 -15 -34 -12 -10 -15 -70 -17 -389 l-3 -376 -381 -5 -381 -5 -46 -38 c-26 -21 -47 -44 -47 -51 0 -8 -7 -19 -15 -26 -13 -11 -15 -384 -15 -3251 0 -2864 2 -3239 15 -3253 8 -8 15 -20 15 -26 0 -6 17 -27 37 -45 l38 -35 2345 0 2345 1 31 27 c17 15 35 38 39 52 4 14 13 28 19 32 8 5 11 121 12 394 l1 388 361 -3 c344 -3 364 -2 394 17 18 11 44 22 58 26 30 7 80 71 80 101 0 11 5 26 10 31 13 13 14 6402 1 6418 -4 6 -11 24 -15 40 -12 51 -53 94 -97 101 -37 6 -67 34 -52 49 3 3 -1022 6 -2280 6 -2268 0 -2286 0 -2292 -20z"/>
<path d="M6956 6801 c-11 -12 -25 -21 -33 -21 -7 0 -19 -11 -25 -25 -6 -14 -15 -25 -19 -25 -4 0 -13 -15 -19 -34 -6 -19 -18 -40 -26 -46 -7 -7 -14 -23 -14 -35 0 -12 -9 -34 -20 -48 -11 -14 -20 -34 -20 -45 0 -10 -9 -29 -20 -42 -11 -13 -20 -34 -20 -48 0 -14 -7 -33 -15 -42 -9 -10 -19 -35 -22 -56 -3 -22 -12 -46 -19 -54 -7 -9 -16 -34 -20 -57 -3 -23 -13 -44 -20 -47 -8 -3 -14 -20 -14 -39 0 -18 -9 -50 -20 -72 -11 -22 -20 -53 -20 -71 0 -17 -9 -43 -20 -57 -14 -17 -20 -40 -20 -74 0 -29 -8 -63 -20 -86 -12 -22 -20 -56 -20 -85 0 -28 -7 -57 -16 -71 -11 -16 -18 -53 -22 -115 -2 -50 -11 -104 -19 -120 -9 -17 -18 -81 -23 -160 -5 -72 -13 -156 -19 -186 -6 -35 -10 -683 -10 -1756 -1 -1501 1 -1703 14 -1714 8 -7 15 -18 15 -25 0 -8 21 -32 48 -54 l47 -41 521 0 c508 0 521 0 539 20 10 11 24 20 31 20 7 0 19 10 25 22 7 13 18 29 26 36 20 21 19 3530 -2 3618 -8 34 -17 111 -21 170 -4 60 -13 118 -19 129 -7 11 -15 53 -19 93 -3 41 -13 86 -21 102 -8 16 -15 48 -15 72 0 24 -9 60 -20 81 -11 21 -20 56 -20 81 0 28 -7 52 -20 69 -12 15 -20 40 -20 63 0 20 -7 45 -16 55 -9 10 -18 37 -21 61 -3 24 -12 50 -19 59 -8 8 -17 31 -20 50 -4 19 -12 43 -19 54 -6 11 -15 36 -19 56 -3 21 -13 42 -20 48 -8 7 -17 27 -20 45 -4 19 -13 39 -21 46 -8 7 -15 23 -15 35 0 12 -9 34 -20 48 -11 14 -20 33 -20 42 0 9 -9 28 -20 42 -11 14 -20 32 -20 40 0 16 -50 73 -64 73 -5 0 -14 8 -21 17 -10 13 -31 18 -87 21 -64 3 -75 1 -92 -17z"/>
</g>
<g id="layer103" fill="#febb00" stroke="none">
<path d="M1155 7750 c-4 -12 -22 -24 -48 -32 -48 -14 -97 -61 -97 -94 0 -12 -7 -27 -15 -34 -13 -11 -15 -63 -15 -361 l0 -349 1898 0 c1228 0 1892 -4 1882 -10 -13 -9 -13 -10 0 -11 95 -6 155 -33 199 -89 32 -41 40 -60 50 -125 6 -42 8 -88 5 -103 -4 -15 -3 -24 1 -20 4 4 11 22 16 40 6 25 7 18 4 -27 -10 -121 -15 -439 -14 -790 2 -428 2 -439 -11 -443 -5 -2 -9 -16 -9 -30 2 -24 2 -24 6 -4 2 12 8 22 12 22 11 0 1 -49 -10 -56 -5 -3 -8 -26 -7 -52 l1 -47 4 40 c3 22 8 44 13 48 4 5 5 -13 2 -40 -2 -26 -9 -49 -13 -51 -5 -2 -9 -13 -8 -25 0 -21 1 -21 10 -2 8 17 9 16 4 -5 -14 -56 -25 -910 -13 -910 4 0 3 -11 -2 -25 -6 -14 -6 -25 0 -25 4 0 11 8 13 18 4 13 5 11 6 -5 1 -14 -5 -23 -14 -23 -11 0 -15 -10 -13 -37 1 -37 1 -37 5 -5 2 17 8 32 12 32 10 0 1 -69 -10 -76 -5 -3 -9 -10 -9 -16 0 -24 29 16 33 45 4 32 4 32 5 -4 2 -25 -4 -42 -18 -54 -23 -21 -28 -44 -5 -25 8 7 15 8 15 2 0 -5 -7 -15 -15 -22 -8 -7 -14 -26 -14 -44 2 -29 2 -29 6 -4 2 14 11 32 19 38 16 14 19 -1 3 -17 -11 -11 -27 -156 -33 -303 l-4 -75 9 75 c5 41 13 113 18 160 l8 85 -3 -90 c-6 -146 -15 -235 -25 -235 -5 0 -9 -12 -8 -27 l1 -28 8 25 8 25 1 -27 c1 -24 -3 -28 -28 -28 -22 0 -30 6 -35 25 l-6 25 -383 -2 -382 -3 -12 -35 -12 -35 0 38 c-1 26 -9 46 -26 65 -14 15 -25 22 -25 16 0 -5 5 -15 11 -21 8 -8 8 -13 0 -17 -6 -4 -15 3 -20 17 -10 26 -75 87 -94 88 -7 0 -3 4 8 8 18 7 17 9 -11 24 -35 18 -53 11 -26 -10 15 -11 13 -12 -11 -3 -19 7 -511 10 -1415 10 l-1387 0 -50 -26 c-28 -15 -58 -33 -67 -42 -12 -9 -18 -11 -18 -4 0 7 3 12 8 12 4 0 13 10 21 23 l14 22 -23 -20 c-12 -11 -25 -20 -29 -20 -3 0 -5 -3 -4 -7 2 -4 -3 -5 -10 -2 -8 3 -14 -2 -14 -10 0 -8 5 -12 11 -9 6 4 5 0 -1 -9 -7 -8 -9 -19 -5 -24 4 -4 -1 -2 -11 5 -14 11 -21 11 -30 2 -9 -9 -7 -13 10 -17 21 -6 21 -6 2 -25 -23 -23 -45 -25 -53 -4 -4 13 -60 15 -388 17 l-383 3 -6 50 c-3 28 -7 43 -8 35 -1 -13 -2 -13 -11 0 -6 10 -10 -591 -10 -1707 0 -1517 2 -1723 15 -1737 8 -8 15 -20 15 -26 0 -6 17 -27 37 -45 l38 -35 2345 0 2345 1 31 27 c17 15 35 38 39 52 4 14 13 28 19 32 8 5 11 121 12 394 l1 388 361 -3 c344 -3 364 -2 394 17 18 11 44 22 58 26 30 7 80 71 80 101 0 11 5 26 10 31 13 13 14 6402 1 6418 -4 6 -11 24 -15 40 -12 51 -53 94 -97 101 -37 6 -67 34 -52 49 3 3 -1022 6 -2280 6 -2268 0 -2286 0 -2292 -20z m3885 -1116 c0 -19 -4 -34 -10 -34 -5 0 -10 18 -10 41 0 24 4 38 10 34 6 -3 10 -22 10 -41z m-4079 -3125 c-9 -22 -10 -22 -10 -3 -1 11 2 24 6 27 12 12 14 0 4 -24z"/>
<path d="M3953 5524 c10 -17 -32 -52 -42 -36 -6 10 -300 12 -1384 12 -1365 0 -1376 0 -1424 -21 -63 -27 -91 -53 -119 -114 -46 -98 -22 -191 71 -270 l47 -40 1427 -3 1426 -2 50 32 c27 18 59 50 70 71 12 20 24 35 27 32 6 -6 6 1 8 81 1 45 -4 73 -19 102 -27 53 -78 101 -116 109 -28 6 -29 7 -7 12 l24 6 -23 20 c-12 11 -20 15 -16 9z m-770 -41 c-376 -2 -990 -2 -1365 0 -376 1 -69 2 682 2 751 0 1058 -1 683 -2z"/>
<path d="M1120 4583 c-72 -14 -160 -134 -160 -218 0 -90 85 -199 165 -212 19 -3 38 -10 41 -14 3 -5 14 -9 25 -9 10 0 19 -4 19 -10 0 -7 450 -10 1330 -10 880 0 1330 3 1330 10 0 6 24 11 53 11 42 1 47 3 22 8 l-30 7 39 8 c53 10 102 51 132 109 21 41 25 60 23 129 -2 45 -5 76 -7 69 -2 -7 -14 4 -26 25 -12 21 -41 52 -64 69 l-44 30 -1411 1 c-777 1 -1423 -1 -1437 -3z m2790 -422 c0 -4 -24 -11 -52 -15 -29 -3 -636 -6 -1348 -6 -1123 1 -1298 3 -1314 15 -18 13 143 15 1347 15 757 0 1367 -4 1367 -9z"/>
<path d="M1085 3691 c3 -5 -3 -12 -12 -14 -15 -4 -15 -5 2 -6 11 0 29 6 39 14 19 14 19 15 -8 15 -15 0 -25 -4 -21 -9z"/>
<path d="M6401 2624 c-1 -914 1 -1043 14 -1054 8 -7 15 -18 15 -25 0 -8 21 -32 48 -54 l47 -41 521 0 c508 0 521 0 539 20 10 11 24 20 31 20 7 0 19 10 25 22 7 13 18 29 26 36 20 21 19 2032 -1 2032 -8 0 -17 -6 -19 -12 -3 -7 -6 5 -8 27 l-2 40 -6 -40 -6 -40 -595 0 -595 0 -6 45 c-3 25 -7 41 -8 35 -1 -5 -6 -1 -11 10 -5 11 -9 -431 -9 -1021z"/>
</g>
<g id="layer104" fill="#feefb1" stroke="none">
<path d="M1155 7750 c-4 -12 -22 -24 -48 -32 -48 -14 -97 -61 -97 -94 0 -12 -7 -27 -15 -34 -13 -11 -15 -63 -15 -361 l0 -349 1908 -1 c1049 -1 1918 -5 1932 -9 l25 -8 -25 -2 c-20 -2 -18 -4 13 -11 88 -21 150 -83 172 -172 9 -38 13 -44 14 -24 1 17 5 26 12 22 7 -5 8 -48 4 -133 -12 -235 -14 -385 -14 -772 1 -594 1 -608 -11 -730 -8 -76 -10 -241 -6 -490 8 -545 7 -521 16 -480 l7 35 2 -36 c0 -20 -2 -39 -6 -43 -11 -11 -12 -67 -2 -60 11 6 12 -10 2 -20 -11 -10 -11 -72 -14 -1371 -3 -1132 1 -1595 12 -1480 l6 60 1 -62 c1 -37 -2 -63 -8 -63 -5 0 -10 -8 -10 -19 0 -28 38 -31 391 -31 263 0 318 2 335 15 10 8 35 19 54 25 39 12 90 71 90 105 0 11 5 26 10 31 13 13 14 6402 1 6418 -4 6 -11 24 -15 40 -12 51 -53 94 -97 101 -37 6 -67 34 -52 49 3 3 -1022 6 -2280 6 -2268 0 -2286 0 -2292 -20z"/>
<path d="M3894 5522 c9 -15 48 -23 43 -9 -2 7 -14 14 -26 15 -13 2 -21 -1 -17 -6z"/>
<path d="M3953 5524 c4 -6 -1 -18 -11 -27 -14 -13 -26 -14 -57 -7 -23 6 -600 10 -1387 10 -1339 0 -1347 0 -1395 -21 -63 -27 -91 -53 -119 -114 -46 -98 -22 -191 71 -270 l47 -40 1427 -3 1426 -2 49 32 c130 86 145 252 34 358 -18 17 -46 34 -63 37 -28 6 -29 7 -7 12 l24 6 -23 20 c-12 11 -20 15 -16 9z m-770 -41 c-376 -2 -990 -2 -1365 0 -376 1 -69 2 682 2 751 0 1058 -1 683 -2z"/>
<path d="M1120 4583 c-72 -14 -160 -134 -160 -218 0 -89 83 -196 162 -211 18 -4 38 -10 43 -14 6 -4 19 -4 30 0 19 7 19 7 0 18 -15 9 323 11 1348 12 905 0 1367 -3 1367 -10 0 -5 -17 -10 -37 -11 l-38 -1 29 -10 c20 -7 34 -8 45 -1 9 6 32 14 51 18 49 11 98 52 126 108 21 41 25 60 23 129 -2 45 -5 76 -7 69 -2 -7 -14 4 -26 25 -12 21 -41 52 -64 69 l-44 30 -1411 1 c-777 1 -1423 -1 -1437 -3z"/>
<path d="M1097 3664 c-26 -14 -56 -33 -65 -42 -35 -35 -64 -98 -69 -149 -9 -89 53 -182 150 -225 37 -17 125 -18 1438 -18 848 0 1399 4 1399 9 0 5 15 14 33 20 71 24 129 114 128 201 0 92 -48 165 -136 206 l-50 24 -1390 0 -1390 0 -48 -26z"/>
<path d="M1150 2780 c0 -5 -16 -12 -36 -16 -75 -14 -154 -121 -154 -209 0 -47 37 -131 71 -161 13 -11 40 -31 60 -42 l37 -22 1418 2 1419 3 45 30 c145 98 129 325 -27 391 -18 8 -43 14 -55 14 -19 0 -20 2 -8 10 10 6 -475 10 -1377 10 -878 0 -1393 -4 -1393 -10z m2038 -7 c-373 -2 -983 -2 -1355 0 -373 1 -68 2 677 2 745 0 1050 -1 678 -2z"/>
<path d="M1813 1870 l-711 -5 -39 -31 c-59 -48 -94 -106 -100 -169 -11 -106 67 -211 175 -234 70 -15 77 -14 62 4 -11 13 65 15 671 14 376 0 675 -4 665 -8 -36 -14 7 -20 60 -9 146 31 220 207 138 328 -44 66 -90 98 -154 107 -30 4 -375 6 -767 3z"/>
</g>


</svg>