<!DOCTYPE svg PUBLIC "-//W3C//DTD SVG 20010904//EN" "http://www.w3.org/TR/2001/REC-SVG-20010904/DTD/svg10.dtd">
<svg version="1.0" xmlns="http://www.w3.org/2000/svg" width="150px" height="45px" viewBox="0 0 1500 450" preserveAspectRatio="xMidYMid meet">
<g id="layer101" fill="#353353" stroke="none">
<path d="M0 225 l0 -225 750 0 750 0 0 225 0 225 -750 0 -750 0 0 -225z"/>
</g>
<g id="layer102" fill="#423f5b" stroke="none">
<path d="M533 410 c-25 -10 -33 -64 -10 -73 12 -5 13 -54 1 -112 -7 -35 19 -65 57 -67 69 -4 119 3 119 16 0 8 -5 16 -11 18 -7 2 -13 17 -15 33 -4 40 -40 64 -86 56 -5 0 -8 3 -8 9 0 5 19 10 43 10 24 0 48 5 55 12 18 18 14 63 -8 83 -23 21 -104 30 -137 15z m91 -36 c29 -11 16 -24 -24 -24 -38 0 -49 8 -33 23 8 9 36 9 57 1z m-9 -159 c0 -28 -29 -25 -33 3 -3 19 0 23 15 20 10 -2 18 -12 18 -23z"/>
</g>
<g id="layer103" fill="#4a4659" stroke="none">
</g>
<g id="layer104" fill="#ffde59" stroke="none">
<path d="M1357 334 c-14 -15 -6 -43 14 -49 25 -8 42 6 37 31 -3 19 -38 31 -51 18z"/>
</g>
<g id="layer105" fill="#fefefe" stroke="none">
<path d="M533 410 c-25 -10 -33 -64 -10 -73 12 -5 13 -54 1 -112 -7 -35 19 -65 57 -67 69 -4 119 3 119 16 0 8 -5 16 -11 18 -7 2 -13 17 -15 33 -4 35 -27 55 -66 55 -15 0 -28 5 -28 10 0 6 19 10 43 10 24 0 48 5 55 12 18 18 14 63 -8 83 -23 21 -104 30 -137 15z m91 -36 c29 -11 16 -24 -24 -24 -38 0 -49 8 -33 23 8 9 36 9 57 1z m-9 -159 c0 -28 -29 -25 -33 3 -3 19 0 23 15 20 10 -2 18 -12 18 -23z"/>
<path d="M100 219 l0 -122 65 6 c98 7 129 48 89 117 -16 27 -16 29 15 74 l32 46 -36 0 c-31 0 -38 -5 -63 -45 -32 -51 -42 -49 -42 7 0 36 -2 38 -30 38 l-30 0 0 -121z m110 -37 c0 -13 -23 -32 -37 -32 -13 0 -18 41 -7 53 8 7 44 -10 44 -21z"/>
<path d="M322 328 c-7 -7 -12 -27 -12 -45 0 -36 14 -47 73 -58 45 -9 38 -29 -8 -22 -25 4 -35 1 -40 -10 -9 -25 9 -36 58 -37 70 -2 87 20 87 111 0 71 -1 73 -24 73 -13 0 -26 -6 -29 -12 -4 -10 -7 -10 -18 0 -17 15 -71 16 -87 0z m86 -40 c17 -17 15 -28 -7 -28 -22 0 -35 15 -26 30 8 13 18 13 33 -2z"/>
<path d="M720 215 l0 -125 35 0 c34 0 35 1 35 40 0 38 1 39 26 30 18 -7 34 -7 52 3 26 12 27 17 30 95 l3 82 -31 0 c-30 0 -30 0 -30 -58 0 -62 -14 -89 -37 -71 -8 7 -13 34 -13 70 l0 59 -35 0 -35 0 0 -125z"/>
<path d="M953 328 c-35 -45 -18 -84 42 -99 53 -13 62 -34 10 -26 -28 5 -37 2 -45 -13 -9 -17 -5 -20 29 -30 86 -23 121 9 121 112 0 65 -1 68 -24 68 -13 0 -26 -6 -29 -12 -4 -10 -7 -10 -18 0 -7 6 -27 12 -45 12 -17 0 -36 -6 -41 -12z m85 -51 c2 -10 -3 -17 -12 -17 -18 0 -29 16 -21 31 9 14 29 6 33 -14z"/>
<path d="M1189 313 c-6 -15 -21 -56 -34 -90 l-24 -63 33 0 c31 0 34 3 46 48 19 68 25 69 39 7 12 -54 13 -55 47 -55 19 0 34 1 34 3 0 1 -15 40 -33 87 -31 80 -35 85 -65 88 -27 3 -34 -1 -43 -25z"/>
</g>


</svg>