<!DOCTYPE svg PUBLIC "-//W3C//DTD SVG 20010904//EN" "http://www.w3.org/TR/2001/REC-SVG-20010904/DTD/svg10.dtd">
<svg version="1.0" xmlns="http://www.w3.org/2000/svg" width="777px" height="777px" viewBox="0 0 7770 7770" preserveAspectRatio="xMidYMid meet">
<g id="layer101" fill="#000000" stroke="none">
</g>
<g id="layer102" fill="#3b4b5a" stroke="none">
<path d="M3446 7264 c-36 -36 -56 -67 -60 -90 -4 -18 -11 -34 -16 -34 -4 0 -16 -24 -26 -52 -9 -29 -20 -55 -24 -58 -3 -3 -13 -27 -20 -55 -8 -27 -20 -61 -27 -75 -7 -14 -16 -42 -19 -62 -4 -21 -10 -38 -14 -38 -3 0 -12 -28 -18 -62 -6 -34 -15 -64 -20 -67 -5 -3 -15 -40 -22 -81 -7 -41 -16 -79 -20 -85 -4 -5 -13 -39 -20 -75 -7 -36 -17 -70 -21 -76 -5 -6 -14 -44 -21 -85 -7 -41 -15 -76 -19 -79 -3 -3 -12 -44 -19 -92 -7 -49 -15 -88 -20 -88 -4 0 -5 -12 -2 -26 2 -14 0 -29 -6 -33 -6 -3 -16 -44 -22 -91 -6 -46 -15 -91 -20 -100 -4 -8 -13 -55 -20 -105 -7 -49 -16 -95 -20 -100 -5 -6 -12 -39 -16 -75 -3 -36 -11 -71 -17 -77 -11 -15 -57 -18 -57 -4 0 5 -18 12 -40 16 -22 4 -40 11 -40 16 0 5 -8 9 -17 9 -10 0 -31 7 -47 15 -15 8 -35 15 -42 15 -8 0 -14 5 -14 10 0 6 -8 10 -17 10 -10 0 -31 7 -47 15 -15 8 -34 15 -41 15 -7 0 -15 4 -17 10 -1 5 -32 11 -68 14 -35 2 -66 9 -68 15 -2 6 -12 11 -23 11 -10 0 -19 3 -19 8 0 4 -12 8 -27 9 -16 2 -54 6 -87 9 -38 4 -67 2 -82 -6 -12 -7 -30 -10 -38 -7 -9 4 -16 2 -16 -3 0 -6 -9 -10 -20 -10 -11 0 -20 -4 -20 -9 0 -5 -10 -11 -23 -15 -12 -3 -32 -14 -44 -26 -12 -11 -27 -20 -33 -20 -5 0 -24 -13 -42 -30 -17 -16 -34 -30 -38 -30 -4 0 -13 -11 -20 -25 -7 -14 -18 -25 -24 -25 -6 -1 -22 -15 -36 -31 -14 -17 -35 -43 -48 -57 -12 -15 -25 -36 -28 -47 -4 -11 -10 -22 -14 -25 -10 -7 -59 -90 -67 -112 -3 -10 -9 -18 -13 -18 -5 0 -14 -17 -20 -37 -7 -21 -18 -45 -25 -53 -8 -8 -17 -28 -21 -45 -4 -16 -11 -32 -15 -35 -4 -3 -14 -28 -21 -55 -7 -28 -16 -52 -19 -55 -4 -3 -12 -25 -18 -50 -7 -25 -15 -52 -18 -60 -3 -8 -5 -23 -4 -33 1 -10 -2 -24 -7 -30 -5 -7 -16 -58 -23 -114 -7 -57 -17 -103 -21 -103 -11 0 -10 -424 1 -435 4 -6 14 -46 21 -90 6 -44 17 -86 24 -94 6 -8 10 -15 8 -15 -2 -1 1 -14 7 -29 6 -15 14 -39 17 -52 3 -14 10 -25 14 -25 4 0 13 -13 18 -29 6 -16 18 -38 27 -48 75 -85 113 -122 133 -127 12 -4 22 -12 22 -17 0 -5 5 -9 12 -9 28 0 87 -36 88 -53 0 -27 19 -57 35 -57 8 0 15 -4 15 -10 0 -5 7 -10 15 -10 8 0 15 -4 15 -10 0 -5 9 -10 19 -10 11 0 26 -7 35 -15 8 -8 21 -15 28 -15 7 0 22 -7 32 -15 11 -8 28 -15 38 -15 10 0 18 -4 18 -10 0 -5 9 -10 20 -10 11 0 20 -5 20 -11 0 -5 5 -7 10 -4 6 3 10 1 10 -4 0 -6 7 -11 15 -11 9 0 40 -15 69 -34 29 -18 63 -37 76 -41 13 -4 33 -16 44 -27 12 -11 33 -22 49 -25 15 -3 27 -9 27 -14 0 -5 7 -9 15 -9 8 0 15 -5 15 -11 0 -5 4 -8 8 -5 5 3 18 -2 28 -12 11 -9 36 -26 57 -36 20 -11 37 -22 37 -26 0 -5 10 -10 23 -14 12 -3 31 -13 42 -23 12 -10 37 -26 57 -37 20 -10 39 -25 42 -32 3 -8 12 -14 21 -14 8 0 15 -4 15 -10 0 -5 6 -10 14 -10 8 0 16 -7 20 -15 3 -8 10 -15 16 -15 11 0 26 -11 66 -47 13 -12 31 -24 41 -27 10 -3 37 -23 59 -43 67 -61 94 -83 100 -83 4 0 20 -13 36 -30 15 -16 35 -30 42 -30 8 0 18 -9 21 -20 3 -11 10 -20 14 -20 4 0 34 -25 66 -55 31 -30 60 -55 64 -55 4 0 14 -11 21 -25 7 -14 18 -25 24 -25 6 0 24 -18 40 -40 17 -22 35 -40 40 -40 6 0 22 -16 36 -35 14 -19 30 -35 37 -35 7 0 18 -10 24 -22 7 -13 20 -32 30 -43 25 -27 49 -56 78 -94 13 -17 28 -31 34 -31 12 0 36 -31 37 -47 0 -18 32 -53 47 -53 7 0 13 -8 13 -18 0 -10 12 -31 28 -48 15 -17 38 -45 52 -64 14 -18 31 -39 38 -46 6 -7 12 -17 12 -22 0 -5 18 -32 40 -60 22 -27 40 -54 40 -58 0 -5 11 -22 25 -38 14 -16 25 -34 25 -41 0 -7 8 -20 19 -29 10 -9 33 -46 51 -81 18 -36 37 -65 41 -65 5 0 9 -8 9 -19 0 -10 7 -24 15 -31 8 -7 15 -18 15 -25 0 -7 6 -18 14 -25 8 -6 31 -44 51 -83 20 -40 56 -108 80 -152 41 -74 62 -113 102 -190 9 -16 20 -31 25 -33 4 -2 8 -11 8 -21 0 -9 9 -27 20 -39 22 -23 54 -74 70 -110 14 -34 63 -92 76 -92 7 0 14 -7 18 -15 3 -8 16 -15 30 -15 14 0 28 -5 31 -10 8 -12 55 -13 55 -1 0 4 18 11 39 14 22 3 50 14 62 26 12 11 31 23 41 27 10 3 37 23 59 45 22 21 43 39 47 39 9 1 162 192 182 228 8 15 27 43 43 63 15 20 27 40 27 46 0 5 9 18 20 28 11 10 18 20 15 23 -2 3 4 17 14 31 10 14 21 33 24 41 4 8 16 29 27 45 24 36 50 90 50 105 0 5 4 10 9 10 5 0 14 12 20 27 6 16 20 42 30 58 11 17 20 38 20 48 1 9 4 17 9 17 4 0 13 15 21 33 7 17 19 46 27 64 8 17 14 34 14 39 0 4 6 15 13 23 8 9 22 39 31 66 26 73 40 105 46 105 3 0 7 12 8 28 1 15 7 28 12 30 6 2 10 12 10 23 0 10 5 19 11 19 5 0 8 4 5 8 -3 5 1 20 8 34 8 14 19 43 26 65 7 21 16 43 20 48 4 6 13 28 20 50 7 22 16 44 21 50 5 5 9 18 9 30 0 11 9 38 20 60 11 21 23 54 26 72 3 18 10 35 14 38 5 3 14 30 20 60 6 30 15 55 19 55 4 0 13 28 21 62 7 35 17 65 21 68 4 3 10 21 14 40 4 19 9 47 12 63 3 15 9 27 12 27 4 0 8 6 9 13 3 31 37 163 42 167 3 3 12 32 19 65 7 33 17 69 22 80 4 11 13 47 20 80 6 33 15 65 19 70 4 6 13 46 20 90 7 44 16 85 20 90 4 6 13 46 20 90 7 44 16 85 20 90 4 6 13 52 20 103 7 50 16 92 20 92 4 0 13 56 20 125 8 69 16 125 20 125 3 0 4 18 2 40 -2 22 1 46 6 53 6 7 16 89 23 182 6 94 16 174 20 179 12 13 11 592 0 614 -5 9 -14 57 -20 106 -6 48 -16 94 -22 102 -6 8 -9 25 -7 39 3 14 2 25 -3 25 -4 0 -11 16 -15 36 -4 19 -12 38 -19 41 -7 2 -16 15 -19 27 -5 19 -23 45 -66 91 -35 38 -44 40 -179 40 -99 0 -135 -3 -138 -12 -3 -7 -18 -13 -34 -13 -16 0 -29 -4 -29 -10 0 -5 -7 -10 -16 -10 -8 0 -36 -10 -62 -22 -26 -12 -57 -21 -69 -20 -13 1 -23 -3 -23 -8 0 -6 -11 -10 -25 -10 -14 0 -25 -4 -25 -9 0 -5 -18 -12 -40 -16 -22 -4 -40 -11 -40 -16 0 -5 -11 -9 -24 -9 -14 0 -27 -4 -30 -9 -4 -5 -24 -12 -46 -16 -22 -4 -42 -11 -46 -16 -3 -5 -18 -9 -34 -9 -16 0 -32 -5 -35 -11 -4 -6 -13 -8 -21 -5 -8 3 -14 1 -14 -4 0 -6 -18 -10 -40 -10 -22 0 -40 -4 -40 -10 0 -5 -27 -12 -60 -16 -33 -4 -60 -11 -60 -15 0 -5 -18 -9 -40 -9 -22 0 -40 -4 -40 -9 0 -5 -40 -13 -90 -17 -49 -3 -90 -10 -90 -15 0 -5 -26 -9 -58 -9 -33 0 -63 -5 -71 -12 -9 -10 -98 -13 -373 -13 -280 0 -362 3 -366 13 -2 8 -26 12 -73 12 -39 0 -69 4 -69 10 0 6 -9 10 -20 10 -14 0 -21 9 -26 38 -4 20 -10 42 -14 47 -3 6 -12 30 -19 55 -7 25 -17 50 -21 55 -17 21 -32 198 -28 318 l4 126 62 62 c34 34 62 70 62 81 0 10 5 18 10 18 6 0 10 53 10 139 0 83 4 142 10 146 6 3 10 40 10 81 0 77 17 124 46 124 8 0 14 4 14 9 0 8 31 41 96 102 21 20 51 50 66 65 14 16 34 35 43 43 14 11 16 26 13 73 -2 33 -9 63 -14 66 -6 4 -17 23 -24 42 -8 19 -20 42 -27 50 -6 8 -44 56 -83 105 -40 50 -100 116 -133 147 -65 61 -165 128 -191 128 -9 0 -16 5 -16 10 0 6 -23 10 -50 10 -48 0 -53 -3 -104 -56z"/>
</g>
<g id="layer103" fill="#446c8a" stroke="none">
<path d="M3445 7263 c-30 -31 -55 -63 -55 -72 1 -13 3 -12 15 4 71 101 101 122 160 111 22 -4 35 -3 35 4 0 5 -22 10 -50 10 -48 0 -53 -3 -105 -57z"/>
<path d="M3645 7279 c55 -29 94 -56 134 -93 19 -17 30 -24 25 -15 -17 32 -156 129 -185 129 -7 0 4 -10 26 -21z"/>
<path d="M3820 7153 c0 -12 38 -48 45 -41 3 2 -6 15 -20 28 -14 13 -25 19 -25 13z"/>
<path d="M3351 7108 c-15 -43 -8 -45 11 -3 8 19 12 35 8 35 -5 0 -13 -14 -19 -32z"/>
<path d="M3910 7050 c23 -27 44 -50 47 -50 3 0 -14 23 -37 50 -23 28 -44 50 -47 50 -3 0 14 -22 37 -50z"/>
<path d="M3331 7048 c-1 -10 -5 -18 -11 -18 -5 0 -10 -8 -10 -17 0 -14 3 -13 16 5 8 12 13 28 11 35 -3 7 -6 5 -6 -5z"/>
<path d="M3296 6964 c-4 -14 -5 -28 -3 -31 3 -2 8 8 11 23 4 14 5 28 3 31 -3 2 -8 -8 -11 -23z"/>
<path d="M3991 6947 c32 -46 49 -65 49 -53 0 6 -21 33 -58 75 -13 14 -9 4 9 -22z"/>
<path d="M3269 6893 c-6 -16 -12 -41 -15 -58 -5 -33 0 -23 21 43 15 47 11 58 -6 15z"/>
<path d="M4060 6821 c0 -6 5 -13 10 -16 6 -3 10 -28 10 -55 0 -39 -4 -52 -22 -64 -12 -9 -17 -16 -11 -16 36 0 55 71 37 138 -6 21 -24 31 -24 13z"/>
<path d="M3230 6778 c0 -19 2 -20 10 -8 13 19 13 30 0 30 -5 0 -10 -10 -10 -22z"/>
<path d="M3190 6656 c0 -7 -2 -29 -5 -47 -6 -33 -6 -33 9 6 19 47 19 55 6 55 -5 0 -10 -6 -10 -14z"/>
<path d="M3968 6599 c-31 -32 -54 -59 -50 -59 8 0 78 66 104 99 35 42 2 18 -54 -40z"/>
<path d="M3872 6504 c-12 -15 -20 -29 -17 -33 4 -3 11 2 16 11 5 9 16 24 25 33 8 8 12 15 7 15 -4 0 -18 -12 -31 -26z"/>
<path d="M3158 6504 c-5 -4 -8 -16 -8 -28 0 -14 3 -17 11 -9 6 6 9 19 7 28 -1 9 -6 13 -10 9z"/>
<path d="M3136 6414 c-4 -20 -5 -38 -3 -40 3 -3 8 11 11 32 4 20 5 38 3 40 -3 3 -8 -11 -11 -32z"/>
<path d="M3805 6428 c-8 -39 -10 -166 -2 -161 4 2 7 39 7 82 0 46 5 82 12 89 9 9 9 12 0 12 -6 0 -14 -10 -17 -22z"/>
<path d="M3118 6355 c-11 -18 -31 -135 -24 -142 3 -3 6 3 6 14 0 10 7 40 16 66 14 43 16 84 2 62z"/>
<path d="M3070 6164 c0 -14 4 -23 10 -19 6 3 10 15 10 26 0 10 -4 19 -10 19 -5 0 -10 -12 -10 -26z"/>
<path d="M3060 6103 c0 -16 -3 -39 -7 -53 -3 -14 -3 -22 1 -19 10 10 24 99 15 99 -5 0 -9 -12 -9 -27z"/>
<path d="M3761 5963 c-1 -7 -17 -31 -37 -53 -20 -22 -32 -40 -28 -40 15 0 76 80 71 93 -4 9 -6 9 -6 0z"/>
<path d="M3015 5898 c-3 -29 -8 -66 -11 -83 -3 -23 -2 -26 5 -10 9 23 24 145 17 145 -2 0 -7 -24 -11 -52z"/>
<path d="M2975 5695 c-3 -31 -5 -59 -2 -61 3 -3 8 20 12 51 3 31 5 59 2 61 -3 3 -8 -20 -12 -51z"/>
<path d="M3634 5650 c0 -52 1 -74 3 -47 2 26 2 68 0 95 -2 26 -3 4 -3 -48z"/>
<path d="M2198 5593 c17 -2 47 -2 65 0 17 2 3 4 -33 4 -36 0 -50 -2 -32 -4z"/>
<path d="M2110 5580 c0 -6 -9 -10 -20 -10 -11 0 -20 -4 -20 -10 0 -13 1 -13 40 4 24 10 28 15 16 19 -9 4 -16 2 -16 -3z"/>
<path d="M2947 5554 c-4 -4 -7 -19 -6 -33 l0 -26 10 24 c10 26 8 47 -4 35z"/>
<path d="M2015 5530 c-16 -11 -25 -20 -20 -20 6 0 24 9 40 20 17 11 26 20 20 20 -5 0 -23 -9 -40 -20z"/>
<path d="M2421 5540 c11 -7 9 -14 -11 -37 -14 -15 -28 -29 -32 -31 -5 -2 -8 -8 -8 -12 0 -8 -38 -70 -58 -95 -4 -5 -14 -25 -21 -42 -7 -18 -18 -30 -24 -26 -6 4 -8 0 -4 -10 3 -10 2 -17 -3 -17 -6 0 -9 -3 -8 -7 4 -15 -13 -53 -23 -53 -6 0 -7 -4 -4 -10 3 -5 1 -10 -4 -10 -6 0 -10 -3 -9 -7 3 -16 -15 -63 -24 -63 -5 0 -7 -4 -4 -9 3 -5 -1 -14 -9 -21 -8 -7 -12 -16 -9 -21 6 -10 -36 -112 -48 -117 -5 -2 -5 -8 -2 -14 4 -6 3 -13 -2 -17 -5 -3 -15 -28 -22 -56 -7 -27 -19 -62 -27 -77 -7 -15 -16 -41 -20 -58 -4 -16 -11 -30 -16 -30 -6 0 -8 -9 -4 -19 3 -11 1 -22 -5 -26 -5 -3 -10 -17 -10 -31 0 -17 -4 -23 -12 -18 -7 4 -8 3 -4 -4 10 -16 -4 -63 -17 -55 -6 4 -8 -2 -5 -15 5 -18 -20 -130 -39 -172 -3 -8 -8 -26 -10 -40 -2 -14 -8 -27 -14 -28 -5 -2 -7 -8 -4 -13 8 -12 -27 -159 -37 -153 -4 3 -5 -9 -2 -26 4 -18 2 -30 -4 -30 -6 0 -10 -10 -10 -22 3 -46 -2 -79 -11 -74 -5 3 -9 -6 -8 -22 1 -15 0 -45 -1 -67 -2 -31 -5 -37 -13 -25 -8 11 -9 2 -4 -32 5 -35 2 -54 -9 -70 -18 -25 -22 -63 -6 -53 5 3 8 0 5 -7 -4 -11 -8 -53 -19 -191 -2 -21 -6 -40 -9 -43 -9 -9 -102 45 -138 80 -20 19 -28 24 -21 11 13 -26 54 -61 81 -70 12 -3 21 -11 21 -16 0 -5 5 -9 12 -9 28 0 87 -36 88 -53 0 -27 19 -57 35 -57 8 0 15 -4 15 -10 0 -5 7 -10 15 -10 8 0 15 -4 15 -10 0 -5 9 -10 19 -10 11 0 26 -7 35 -15 8 -8 21 -15 28 -15 7 0 22 -7 32 -15 11 -8 28 -15 38 -15 10 0 18 -4 18 -10 0 -5 9 -10 20 -10 11 0 20 -5 20 -11 0 -5 5 -7 10 -4 6 3 10 1 10 -4 0 -6 7 -11 15 -11 9 0 40 -15 69 -34 29 -18 63 -37 76 -41 13 -4 33 -16 44 -27 12 -11 33 -22 49 -25 15 -3 27 -9 27 -14 0 -5 7 -9 15 -9 8 0 15 -5 15 -11 0 -5 4 -8 8 -5 5 3 18 -2 28 -12 11 -9 36 -26 57 -36 20 -11 37 -22 37 -26 0 -5 10 -10 23 -14 12 -3 31 -13 42 -23 12 -10 37 -26 57 -37 20 -10 39 -25 42 -32 3 -8 12 -14 21 -14 8 0 15 -4 15 -10 0 -5 7 -10 15 -10 8 0 15 -5 15 -10 0 -6 8 -14 18 -17 19 -8 33 -18 68 -50 13 -12 31 -24 41 -27 10 -3 37 -23 59 -43 67 -61 94 -83 100 -83 4 0 20 -13 36 -30 15 -16 35 -30 42 -30 8 0 18 -9 21 -20 3 -11 10 -20 14 -20 4 0 34 -25 66 -55 31 -30 60 -55 64 -55 4 0 14 -11 21 -25 7 -14 18 -25 24 -25 6 0 24 -18 40 -40 17 -22 35 -40 40 -40 6 0 22 -16 36 -35 14 -19 30 -35 37 -35 7 0 18 -10 24 -22 7 -13 20 -32 30 -43 25 -27 49 -56 78 -94 13 -17 28 -31 34 -31 12 0 36 -31 37 -47 0 -18 32 -53 47 -53 7 0 13 -8 13 -18 0 -10 12 -31 28 -48 15 -17 38 -45 52 -64 14 -18 31 -39 38 -46 6 -7 12 -17 12 -22 0 -5 18 -32 40 -60 22 -27 40 -54 40 -58 0 -5 11 -22 25 -38 14 -16 25 -34 25 -41 0 -7 8 -20 19 -29 10 -9 33 -46 51 -81 18 -36 37 -65 41 -65 5 0 9 -8 9 -19 0 -10 7 -24 15 -31 8 -7 15 -18 15 -25 0 -7 6 -18 14 -25 8 -6 31 -44 51 -83 20 -40 56 -108 80 -152 41 -74 62 -113 102 -190 9 -16 20 -31 25 -33 4 -2 8 -11 8 -21 0 -9 9 -27 20 -39 22 -23 54 -74 70 -110 14 -34 63 -92 76 -92 7 0 14 -7 18 -15 3 -8 16 -15 30 -15 14 0 28 -4 31 -10 8 -12 55 -13 55 -1 0 4 18 11 39 14 22 3 50 14 62 26 12 11 31 23 41 27 10 3 37 23 59 45 22 21 43 39 47 39 9 1 162 192 182 228 8 15 27 43 43 63 15 20 27 40 27 46 0 5 9 18 20 28 11 10 18 20 15 23 -2 3 4 17 14 31 10 14 21 33 24 41 4 8 16 29 27 45 24 36 50 90 50 105 0 5 4 10 9 10 5 0 14 12 20 27 6 16 20 42 30 58 11 17 20 38 20 48 1 9 4 17 9 17 4 0 13 15 21 32 7 18 19 47 27 65 8 17 14 34 14 39 0 4 6 15 13 23 8 9 22 39 31 66 26 73 40 105 46 105 3 0 7 12 8 27 1 16 7 29 12 31 6 2 10 12 10 23 0 10 5 19 11 19 5 0 8 4 5 8 -3 5 1 20 8 34 8 14 19 43 26 65 7 21 16 43 20 48 4 6 13 28 20 50 7 22 16 44 21 50 5 5 9 18 9 30 0 11 9 38 20 60 11 21 23 54 26 72 3 18 10 35 14 38 5 3 14 30 20 60 6 30 15 55 19 55 4 0 13 28 21 63 7 34 17 64 21 67 4 3 10 21 14 40 4 19 9 47 12 63 3 15 9 27 12 27 4 0 8 6 9 13 3 31 37 163 42 167 3 3 12 32 19 65 7 33 17 69 22 80 4 11 13 47 20 80 6 33 15 65 19 70 4 6 13 46 20 90 7 44 16 85 20 90 4 6 13 46 20 90 7 44 16 85 20 90 4 6 13 52 20 103 7 50 16 92 20 92 4 0 13 56 20 125 8 69 16 125 20 125 3 0 4 18 2 40 -2 22 1 46 6 53 6 7 16 89 23 182 6 94 16 174 20 179 12 13 11 592 0 614 -5 9 -14 57 -20 106 -6 48 -16 94 -22 102 -6 8 -9 25 -7 39 3 14 2 25 -3 25 -4 0 -11 16 -15 36 -4 19 -12 38 -19 41 -7 2 -16 15 -19 27 -5 19 -23 45 -66 91 -35 38 -44 40 -179 40 -99 0 -135 -3 -138 -12 -3 -7 -18 -13 -34 -13 -16 0 -29 -4 -29 -10 0 -5 -7 -10 -16 -10 -8 0 -36 -10 -62 -22 -26 -12 -57 -21 -69 -20 -13 1 -23 -3 -23 -8 0 -6 -11 -10 -25 -10 -14 0 -25 -4 -25 -9 0 -5 -18 -12 -40 -16 -22 -4 -40 -11 -40 -16 0 -5 -11 -9 -24 -9 -14 0 -27 -4 -30 -9 -4 -5 -24 -12 -46 -16 -22 -4 -42 -11 -46 -16 -3 -5 -18 -9 -34 -9 -16 0 -32 -5 -35 -11 -4 -6 -13 -8 -21 -5 -8 3 -14 1 -14 -4 0 -6 -18 -10 -40 -10 -22 0 -40 -4 -40 -10 0 -5 -27 -12 -60 -16 -33 -4 -60 -11 -60 -15 0 -5 -18 -9 -40 -9 -22 0 -40 -4 -40 -9 0 -5 -40 -13 -90 -17 -49 -3 -90 -10 -90 -15 0 -5 -26 -9 -58 -9 -33 0 -63 -5 -71 -12 -9 -10 -98 -13 -373 -13 -280 0 -362 3 -366 13 -2 8 -26 12 -73 12 -39 0 -69 4 -69 10 0 6 -9 10 -20 10 -12 0 -20 7 -20 18 0 14 -2 14 -9 3 -8 -12 -21 -12 -88 3 -43 9 -96 19 -118 21 -22 3 -47 8 -55 11 -8 3 -28 8 -45 11 -16 3 -32 8 -35 12 -3 4 -19 8 -37 9 -17 1 -43 9 -58 16 -15 8 -33 12 -40 10 -7 -3 -16 -1 -20 5 -3 6 -17 11 -30 11 -23 0 -179 46 -200 58 -5 4 -19 8 -30 9 -11 2 -21 7 -23 12 -1 5 -21 6 -42 4 -23 -3 -40 -1 -40 5 0 6 -18 13 -40 17 -22 4 -40 11 -40 16 0 5 -8 9 -17 9 -10 0 -31 7 -47 15 -15 8 -35 15 -42 15 -8 0 -14 5 -14 10 0 6 -8 10 -17 10 -10 0 -31 7 -47 15 -15 8 -34 15 -41 15 -7 0 -15 4 -17 10 -1 5 -32 11 -67 14 -38 2 -59 1 -50 -4z"/>
<path d="M1939 5480 c-31 -26 -15 -26 18 0 14 11 21 20 15 20 -5 0 -20 -9 -33 -20z"/>
<path d="M2932 5460 c0 -19 2 -27 5 -17 2 9 2 25 0 35 -3 9 -5 1 -5 -18z"/>
<path d="M1880 5428 c-11 -12 -20 -27 -20 -32 0 -6 5 -3 11 6 5 10 19 24 32 33 12 8 16 15 10 15 -7 0 -21 -10 -33 -22z"/>
<path d="M1810 5358 c-14 -17 -30 -36 -35 -42 -19 -20 -45 -60 -45 -69 0 -5 16 13 37 40 20 26 39 50 42 53 18 16 43 50 35 50 -5 -1 -20 -15 -34 -32z"/>
<path d="M1702 5210 c-7 -11 -12 -25 -12 -32 1 -7 8 0 16 15 18 33 14 46 -4 17z"/>
<path d="M1653 5120 c-3 -11 -9 -20 -13 -20 -9 0 -32 -61 -26 -67 2 -3 7 6 11 19 4 13 13 30 20 38 14 18 27 50 19 50 -3 0 -8 -9 -11 -20z"/>
<path d="M1592 5008 c-6 -7 -13 -27 -17 -43 -6 -27 -5 -26 14 9 21 40 23 57 3 34z"/>
<path d="M1540 4885 c-7 -25 -10 -48 -6 -52 3 -3 6 2 6 13 0 10 7 32 15 48 17 33 18 36 6 36 -4 0 -14 -20 -21 -45z"/>
<path d="M1499 4765 c-7 -31 -16 -58 -20 -60 -4 -3 -5 -15 -2 -26 4 -16 11 -4 23 42 9 35 20 72 24 82 5 10 4 17 -2 17 -6 0 -16 -25 -23 -55z"/>
<path d="M1467 4643 c-4 -3 -7 -20 -6 -37 l1 -31 8 35 c9 36 8 45 -3 33z"/>
<path d="M1443 4475 c0 -22 2 -30 4 -17 2 12 2 30 0 40 -3 9 -5 -1 -4 -23z"/>
<path d="M1420 4217 c0 -117 4 -217 9 -223 5 -5 11 -20 14 -34 2 -14 2 -2 -2 25 -3 28 -6 139 -6 248 0 108 -3 197 -7 197 -5 0 -8 -96 -8 -213z"/>
<path d="M1457 3865 c3 -22 7 -42 9 -44 8 -9 2 45 -6 64 -7 14 -8 8 -3 -20z"/>
<path d="M1494 3757 c4 -11 9 -30 12 -43 3 -13 10 -24 15 -24 12 0 12 1 -12 46 -11 21 -18 31 -15 21z"/>
<path d="M1540 3652 c0 -10 27 -42 36 -42 8 0 4 7 -16 30 -11 13 -20 18 -20 12z"/>
</g>
<g id="layer104" fill="#5892bd" stroke="none">
<path d="M2464 5538 c-26 -6 -89 -58 -71 -58 3 0 -5 -12 -20 -27 -24 -27 -68 -104 -64 -112 2 -2 -2 -7 -7 -10 -10 -7 -111 -208 -116 -231 -2 -8 -11 -33 -21 -55 -10 -22 -18 -46 -18 -52 0 -7 -4 -13 -9 -13 -4 0 -7 -3 -6 -7 1 -5 -5 -24 -14 -43 -17 -36 -96 -268 -102 -298 -1 -9 -9 -30 -15 -47 -7 -16 -15 -46 -18 -65 -3 -19 -9 -39 -13 -45 -6 -8 -21 -62 -36 -127 -1 -5 -3 -11 -4 -15 -2 -5 -4 -12 -5 -18 -1 -5 -4 -17 -7 -25 -10 -25 -29 -103 -32 -130 -2 -14 -6 -32 -9 -40 -3 -8 -9 -33 -12 -55 -9 -59 -13 -76 -24 -120 -9 -35 -16 -93 -38 -280 -2 -22 -6 -84 -7 -137 -2 -76 0 -98 11 -98 7 0 13 -9 13 -21 0 -29 18 -59 35 -59 8 0 15 -4 15 -10 0 -5 7 -10 15 -10 8 0 15 -4 15 -10 0 -5 9 -10 19 -10 11 0 26 -7 35 -15 8 -8 21 -15 28 -15 7 0 22 -7 32 -15 11 -8 28 -15 38 -15 10 0 18 -4 18 -10 0 -5 9 -10 20 -10 11 0 20 -5 20 -11 0 -5 5 -7 10 -4 6 3 10 1 10 -4 0 -6 7 -11 15 -11 9 0 40 -15 69 -34 29 -18 63 -37 76 -41 13 -4 33 -16 44 -27 12 -11 33 -22 49 -25 15 -3 27 -9 27 -14 0 -5 7 -9 15 -9 8 0 15 -5 15 -11 0 -5 4 -8 8 -5 5 3 18 -2 28 -12 11 -9 36 -26 57 -36 20 -11 37 -22 37 -26 0 -5 10 -10 23 -14 12 -3 31 -13 42 -23 12 -10 37 -26 57 -37 20 -10 39 -25 42 -32 3 -8 12 -14 21 -14 8 0 15 -4 15 -10 0 -5 7 -10 15 -10 8 0 15 -5 15 -10 0 -6 8 -14 18 -17 19 -8 33 -18 68 -50 13 -12 31 -24 41 -27 10 -3 37 -23 59 -43 67 -61 94 -83 100 -83 4 0 20 -13 36 -30 15 -16 35 -30 42 -30 8 0 18 -9 21 -20 3 -11 10 -20 14 -20 4 0 34 -25 66 -55 31 -30 60 -55 64 -55 4 0 14 -11 21 -25 7 -14 18 -25 24 -25 6 0 24 -18 40 -40 17 -22 35 -40 40 -40 6 0 22 -16 36 -35 14 -19 30 -35 37 -35 7 0 18 -10 24 -23 7 -12 20 -31 30 -42 25 -27 49 -56 78 -94 13 -17 28 -31 34 -31 12 0 36 -31 37 -47 0 -18 32 -53 47 -53 7 0 13 -8 13 -18 0 -10 12 -31 28 -48 15 -17 38 -45 52 -64 14 -18 31 -39 38 -46 6 -7 12 -17 12 -22 0 -5 18 -32 40 -60 22 -27 40 -54 40 -58 0 -5 11 -22 25 -38 14 -16 25 -34 25 -41 0 -7 8 -20 19 -29 10 -9 33 -46 51 -81 18 -36 37 -65 41 -65 5 0 9 -8 9 -19 0 -10 7 -24 15 -31 8 -7 15 -18 15 -25 0 -7 6 -18 14 -25 8 -6 31 -44 51 -83 20 -40 56 -108 80 -152 41 -74 62 -113 102 -190 9 -16 20 -31 25 -33 4 -2 8 -11 8 -20 1 -17 22 -52 33 -52 7 0 -3 42 -14 55 -4 6 -16 62 -26 125 -33 213 -22 753 22 1035 68 435 96 591 130 728 15 59 20 67 41 67 13 0 24 -5 24 -12 0 -6 3 -8 7 -5 3 4 12 2 20 -4 7 -6 13 -9 13 -6 0 3 23 -1 52 -10 37 -11 71 -13 118 -9 36 4 81 8 101 10 21 2 47 14 59 26 13 13 29 20 41 17 10 -3 17 -2 15 2 -3 4 4 13 16 20 16 10 19 10 13 -1 -3 -7 3 -1 15 15 12 15 30 27 40 27 9 0 24 8 31 18 13 16 12 16 -6 3 -11 -8 2 8 30 35 27 27 50 52 50 56 0 4 9 18 20 30 11 13 19 26 17 31 -1 4 3 7 8 7 5 0 9 3 9 8 -3 18 2 32 17 46 9 9 17 26 19 39 5 42 17 77 27 77 5 0 6 9 3 20 -3 11 -2 20 3 20 6 0 10 75 9 190 0 105 -4 190 -9 190 -5 0 -6 5 -2 11 3 6 1 15 -6 19 -8 5 -13 22 -13 39 0 17 -4 31 -9 31 -5 0 -6 5 -2 12 4 6 0 16 -8 22 -18 14 -41 56 -34 63 2 3 -6 17 -20 31 -13 15 -25 30 -25 34 -1 5 -2 12 -3 17 0 5 -5 13 -10 18 -5 5 -6 2 -1 -7 4 -8 -6 1 -23 20 -17 19 -34 43 -37 53 -4 9 -10 17 -15 17 -4 0 -30 18 -56 40 -27 22 -54 40 -61 40 -7 0 -13 5 -13 10 0 6 -9 10 -20 10 -11 0 -20 7 -20 15 0 8 25 76 56 151 201 496 437 911 644 1138 60 65 151 136 174 136 8 0 18 5 21 10 4 6 11 8 16 5 5 -4 9 -2 9 3 0 5 16 9 36 10 20 1 40 4 43 8 3 4 -39 4 -94 2 -60 -3 -101 -10 -103 -17 -2 -6 -17 -11 -33 -11 -16 0 -29 -4 -29 -10 0 -5 -7 -10 -16 -10 -8 0 -36 -10 -62 -22 -26 -12 -57 -21 -69 -20 -13 1 -23 -3 -23 -8 0 -6 -11 -10 -25 -10 -14 0 -25 -4 -25 -9 0 -5 -18 -12 -40 -16 -22 -4 -40 -11 -40 -16 0 -5 -11 -9 -24 -9 -14 0 -27 -4 -30 -9 -4 -5 -24 -12 -46 -16 -22 -4 -42 -11 -46 -16 -3 -5 -18 -9 -34 -9 -16 0 -32 -5 -35 -11 -4 -6 -13 -8 -21 -5 -8 3 -14 1 -14 -4 0 -6 -18 -10 -40 -10 -22 0 -40 -4 -40 -10 0 -5 -27 -12 -60 -16 -33 -4 -60 -11 -60 -15 0 -5 -18 -9 -40 -9 -22 0 -40 -4 -40 -9 0 -5 -40 -13 -90 -17 -49 -3 -90 -10 -90 -15 0 -5 -26 -9 -58 -9 -33 0 -63 -5 -71 -12 -9 -10 -98 -13 -373 -13 -280 0 -362 3 -366 13 -2 8 -26 12 -72 12 -38 0 -70 4 -72 9 -1 5 -21 11 -43 15 -22 3 -53 9 -70 12 -16 4 -45 7 -62 7 -18 0 -30 4 -27 8 4 8 -43 14 -69 10 -4 -1 -17 4 -29 10 -11 6 -36 11 -54 11 -19 0 -34 4 -34 9 0 4 -17 11 -37 15 -21 4 -49 11 -63 17 -14 5 -41 11 -60 14 -19 2 -44 7 -55 12 -25 12 -181 62 -200 65 -8 1 -18 5 -21 9 -4 4 -25 7 -46 7 -21 0 -38 4 -38 9 0 5 -18 12 -40 16 -22 4 -40 11 -40 16 0 5 -8 9 -17 9 -10 0 -31 7 -47 15 -15 8 -35 15 -42 15 -8 0 -14 5 -14 10 0 6 -8 10 -17 10 -10 0 -31 7 -47 15 -15 8 -35 15 -42 15 -8 0 -14 4 -14 9 0 13 -41 18 -76 9z"/>
<path d="M6343 4940 c0 -25 2 -35 4 -22 2 12 2 32 0 45 -2 12 -4 2 -4 -23z"/>
<path d="M6343 4440 c0 -36 2 -50 4 -32 2 17 2 47 0 65 -2 17 -4 3 -4 -33z"/>
<path d="M6302 4050 c0 -19 2 -27 5 -17 2 9 2 25 0 35 -3 9 -5 1 -5 -18z"/>
<path d="M6252 3700 c0 -19 2 -27 5 -17 2 9 2 25 0 35 -3 9 -5 1 -5 -18z"/>
</g>
<g id="layer105" fill="#92aabc" stroke="none">
<path d="M5030 4015 c-7 -8 -9 -15 -5 -15 4 0 2 -7 -5 -15 -7 -8 -10 -15 -6 -15 4 0 -1 -11 -10 -25 -9 -14 -14 -25 -11 -25 4 0 -2 -20 -13 -45 -11 -25 -17 -45 -13 -45 3 0 -2 -11 -11 -25 -9 -13 -18 -35 -20 -47 -3 -13 -5 -23 -6 -23 -1 0 -3 -7 -5 -15 -2 -8 -9 -28 -16 -45 -6 -16 -14 -41 -16 -54 -2 -13 -11 -40 -19 -60 -9 -20 -18 -47 -20 -60 -3 -13 -14 -49 -25 -80 -11 -31 -24 -72 -29 -91 -5 -19 -16 -60 -25 -90 -9 -30 -28 -95 -41 -145 -14 -49 -27 -97 -29 -105 -3 -8 -10 -37 -16 -65 -5 -27 -17 -75 -26 -105 -29 -100 -27 -106 36 -129 110 -39 133 -43 194 -37 104 10 141 18 166 37 13 11 29 19 36 19 7 0 31 14 53 30 23 17 43 30 45 30 7 0 107 103 107 110 0 3 8 15 18 26 21 25 66 116 82 169 7 22 15 44 18 50 12 21 17 87 17 235 -1 136 -4 164 -25 230 -13 41 -23 78 -22 83 1 4 -2 7 -7 7 -5 0 -16 19 -25 41 -21 51 -122 183 -174 225 -21 17 -61 43 -89 57 -44 23 -53 24 -63 12z"/>
</g>
<g id="layer106" fill="#dfe1e3" stroke="none">
<path d="M5015 3963 c-10 -32 -22 -63 -26 -68 -5 -6 -11 -26 -14 -44 -3 -18 -12 -42 -19 -54 -8 -12 -17 -38 -21 -57 -4 -19 -11 -39 -15 -45 -6 -9 -37 -103 -73 -225 -5 -19 -14 -44 -19 -55 -5 -11 -15 -45 -24 -75 -8 -30 -17 -62 -19 -70 -3 -8 -13 -46 -22 -85 -10 -38 -21 -74 -24 -80 -3 -5 -18 -62 -33 -125 -14 -63 -33 -136 -41 -161 -23 -70 -18 -119 12 -119 8 0 27 -7 42 -14 15 -8 40 -16 54 -18 14 -2 29 -7 33 -11 4 -4 31 -7 60 -7 192 0 399 139 493 330 23 47 51 123 62 170 19 74 21 103 16 230 -6 153 -17 203 -73 325 -32 70 -127 196 -182 241 -38 32 -117 74 -137 74 -6 0 -19 -26 -30 -57z"/>
</g>


</svg>